<mxfile host="app.diagrams.net" modified="2021-04-11T13:46:42.078Z" agent="5.0 (Windows NT 10.0; Win64; x64) AppleWebKit/537.36 (KHTML, like Gecko) Chrome/89.0.4389.90 Safari/537.36 OPR/75.0.3969.149" etag="l1ypcOj_qKqIBbAwiCHd" version="14.5.10" type="github">
  <diagram id="v-uDhYRSae3W1Yzc1l2Q" name="Page-1">
    <mxGraphModel dx="880" dy="503" grid="1" gridSize="10" guides="1" tooltips="1" connect="1" arrows="1" fold="1" page="1" pageScale="1" pageWidth="827" pageHeight="1169" math="0" shadow="0">
      <root>
        <mxCell id="0" />
        <mxCell id="1" parent="0" />
        <mxCell id="MeuQIqJO9rYrHFmx1Axx-1" value="" style="strokeWidth=1;shadow=0;dashed=0;align=center;html=1;shape=mxgraph.mockup.containers.browserWindow;rSize=0;strokeColor2=#008cff;strokeColor3=#c4c4c4;mainText=,;recursiveResize=0;strokeColor=#FFFFFF;fillColor=none;" parent="1" vertex="1">
          <mxGeometry x="160" y="70" width="550" height="380" as="geometry" />
        </mxCell>
        <mxCell id="MeuQIqJO9rYrHFmx1Axx-2" value="Page 1" style="strokeWidth=1;shadow=0;dashed=0;align=center;html=1;shape=mxgraph.mockup.containers.anchor;fontSize=17;fontColor=#666666;align=left;" parent="MeuQIqJO9rYrHFmx1Axx-1" vertex="1">
          <mxGeometry x="60" y="12" width="110" height="26" as="geometry" />
        </mxCell>
        <mxCell id="MeuQIqJO9rYrHFmx1Axx-3" value="https://www.myFavouriteList.io" style="strokeWidth=1;shadow=0;dashed=0;align=center;html=1;shape=mxgraph.mockup.containers.anchor;rSize=0;fontSize=17;fontColor=#666666;align=left;" parent="MeuQIqJO9rYrHFmx1Axx-1" vertex="1">
          <mxGeometry x="130" y="60" width="250" height="26" as="geometry" />
        </mxCell>
        <mxCell id="MeuQIqJO9rYrHFmx1Axx-5" value="&lt;font style=&quot;font-size: 16px&quot;&gt;&lt;b&gt;I miei siti preferiti&lt;/b&gt;&lt;/font&gt;" style="text;html=1;strokeColor=none;fillColor=none;align=center;verticalAlign=middle;whiteSpace=wrap;rounded=0;" parent="MeuQIqJO9rYrHFmx1Axx-1" vertex="1">
          <mxGeometry x="20" y="130" width="150" height="20" as="geometry" />
        </mxCell>
        <mxCell id="MeuQIqJO9rYrHFmx1Axx-9" value="URL" style="text;html=1;fillColor=none;align=center;verticalAlign=middle;whiteSpace=wrap;rounded=0;glass=0;shadow=0;sketch=0;strokeColor=#CCCCCC;" parent="MeuQIqJO9rYrHFmx1Axx-1" vertex="1">
          <mxGeometry x="27.75" y="160" width="99" height="20" as="geometry" />
        </mxCell>
        <mxCell id="MeuQIqJO9rYrHFmx1Axx-10" value="Titolo" style="text;html=1;fillColor=none;align=center;verticalAlign=middle;whiteSpace=wrap;rounded=0;glass=0;shadow=0;sketch=0;strokeColor=#CCCCCC;" parent="MeuQIqJO9rYrHFmx1Axx-1" vertex="1">
          <mxGeometry x="27.75" y="190" width="99" height="20" as="geometry" />
        </mxCell>
        <mxCell id="MeuQIqJO9rYrHFmx1Axx-11" value="Categoria&amp;nbsp;&amp;nbsp;" style="text;html=1;fillColor=none;align=center;verticalAlign=middle;whiteSpace=wrap;rounded=0;glass=0;shadow=0;sketch=0;strokeColor=#CCCCCC;" parent="MeuQIqJO9rYrHFmx1Axx-1" vertex="1">
          <mxGeometry x="27.75" y="220" width="99" height="20" as="geometry" />
        </mxCell>
        <mxCell id="ULGZgqY4MlDA-tGkrJFL-10" value="Aggiungi" style="rounded=1;html=1;shadow=0;dashed=0;whiteSpace=wrap;fontSize=13;fillColor=#E6E6E6;align=center;strokeColor=#E6E6E6;fontColor=#333333;" vertex="1" parent="MeuQIqJO9rYrHFmx1Axx-1">
          <mxGeometry x="24.5" y="250" width="105.5" height="16.88" as="geometry" />
        </mxCell>
        <mxCell id="ULGZgqY4MlDA-tGkrJFL-11" value="&lt;ol&gt;&lt;li&gt;&lt;u&gt;&lt;b&gt;Draw.io&lt;/b&gt;&lt;/u&gt;&lt;/li&gt;&lt;li&gt;&lt;u&gt;&lt;b&gt;Replit.com&lt;/b&gt;&lt;/u&gt;&lt;/li&gt;&lt;li&gt;&lt;u&gt;&lt;b&gt;Github.com&lt;/b&gt;&lt;/u&gt;&lt;/li&gt;&lt;/ol&gt;" style="text;strokeColor=none;fillColor=none;html=1;whiteSpace=wrap;verticalAlign=middle;overflow=hidden;" vertex="1" parent="MeuQIqJO9rYrHFmx1Axx-1">
          <mxGeometry x="20" y="280" width="130" height="80" as="geometry" />
        </mxCell>
      </root>
    </mxGraphModel>
  </diagram>
</mxfile>
